<svg width="480" height="400" viewBox="0 0 480 400" fill="none" xmlns="http://www.w3.org/2000/svg">
<g filter="url(#filter0_d_57_7119)">
<path fill-rule="evenodd" clip-rule="evenodd" d="M118.233 42.2105V207.763H271.588V196.579C271.588 195.913 271.65 195.258 271.77 194.618L131.398 194.618V55.3553L350.033 55.3553L350.579 136.628C351.483 137.091 352.292 137.639 352.984 138.211C354.861 139.761 356.717 142.171 357.318 145.272L357.967 148.619L363.234 151.249L363.713 42.2105H118.233ZM377.484 147.29L377.961 38.7046C377.987 32.8002 373.2 28 367.287 28H114.674C108.779 28 104 32.7717 104 38.6579V211.316C104 217.202 108.779 221.974 114.674 221.974H211.155L199.355 256.939C197.024 263.846 202.171 271 209.471 271H271.622C279.068 271 284.226 263.581 281.623 256.616L268.675 221.974H286.231L288.671 227.303L285.248 234.779C283.562 238.461 284.111 242.778 286.664 245.923L294.29 255.313C297.247 258.955 302.24 260.239 306.592 258.478L314.711 255.192L322.282 258.099L323.109 262.367C324.081 267.38 328.476 271 333.589 271H346.576C351.689 271 356.084 267.38 357.056 262.367L357.908 257.974L364.332 255.301L370.941 258.301C375.091 260.184 379.98 259.229 383.113 255.922L392.299 246.226C395.094 243.276 395.967 238.997 394.551 235.191L391.617 227.303L394.016 220.853L401.914 218.882C406.666 217.696 410 213.433 410 208.542V196.725C410 192.282 407.24 188.306 403.074 186.746L394.153 183.406L391.675 176.934L394.342 170.379C395.978 166.357 395.008 161.747 391.89 158.723L383.037 150.136C381.471 148.617 379.528 147.656 377.484 147.29ZM285.821 205.999L291.253 207.595C294.22 208.466 296.663 210.58 297.949 213.388L302.291 222.872C303.58 225.686 303.58 228.92 302.291 231.734L299.109 238.684L303.686 244.32L310.666 241.495C313.176 240.479 315.98 240.454 318.508 241.425L329.232 245.543C332.668 246.862 335.181 249.856 335.88 253.465L336.524 256.789H343.641L344.297 253.403C344.977 249.897 347.37 246.963 350.672 245.59L360.288 241.589C363.025 240.451 366.112 240.5 368.811 241.724L374.518 244.315L380.438 238.066L377.815 231.014C376.924 228.62 376.924 225.986 377.815 223.592L381.327 214.15C382.553 210.854 385.328 208.374 388.745 207.521L395.767 205.768V199.187L387.654 196.149C384.79 195.077 382.524 192.829 381.432 189.976L377.88 180.701C376.914 178.179 376.943 175.385 377.961 172.883L380.254 167.248L375.001 162.153L369.496 165.151C366.428 166.822 362.736 166.888 359.61 165.328L350.033 160.546C347.066 159.065 344.957 156.291 344.327 153.039L343.641 149.5H336.524L335.852 152.97C335.199 156.337 332.964 159.185 329.845 160.622L319.364 165.452C316.106 166.954 312.31 166.72 309.261 164.831L305.097 162.25L299.598 167.163L302.088 172.136C303.551 175.057 303.592 178.486 302.199 181.44L297.808 190.758C296.712 193.083 294.812 194.934 292.458 195.971L285.821 198.895V205.999ZM253.483 221.974H226.174L214.425 256.789H266.496L253.483 221.974ZM336.347 135.289V69.5658H145.63V180.408H286.956L288.586 176.949L285.653 171.091C283.5 166.793 284.495 161.587 288.083 158.382L297.593 149.886C301.124 146.732 306.314 146.279 310.34 148.774L315.139 151.748L322.225 148.483L323.109 143.922C324.081 138.911 328.474 135.289 333.589 135.289H336.347ZM319.623 202.789C319.623 189.869 330.057 181.829 340.616 181.829C351.175 181.829 361.609 189.869 361.609 202.789C361.609 215.819 350.701 223.75 340.616 223.75C330.532 223.75 319.623 215.819 319.623 202.789ZM340.616 196.039C336.943 196.039 333.856 198.657 333.856 202.789C333.856 206.813 337.18 209.539 340.616 209.539C344.053 209.539 347.377 206.813 347.377 202.789C347.377 198.657 344.29 196.039 340.616 196.039Z" fill="url(#paint0_linear_57_7119)"/>
</g>
<path d="M350 337C350 350.807 300.751 362 240 362C179.249 362 130 350.807 130 337C130 323.193 179.249 312 240 312C300.751 312 350 323.193 350 337Z" fill="#F7F3F3"/>
<defs>
<filter id="filter0_d_57_7119" x="101" y="26" width="314" height="251" filterUnits="userSpaceOnUse" color-interpolation-filters="sRGB">
<feFlood flood-opacity="0" result="BackgroundImageFix"/>
<feColorMatrix in="SourceAlpha" type="matrix" values="0 0 0 0 0 0 0 0 0 0 0 0 0 0 0 0 0 0 127 0" result="hardAlpha"/>
<feOffset dx="1" dy="2"/>
<feGaussianBlur stdDeviation="2"/>
<feComposite in2="hardAlpha" operator="out"/>
<feColorMatrix type="matrix" values="0 0 0 0 0 0 0 0 0 0 0 0 0 0 0 0 0 0 0.25 0"/>
<feBlend mode="normal" in2="BackgroundImageFix" result="effect1_dropShadow_57_7119"/>
<feBlend mode="normal" in="SourceGraphic" in2="effect1_dropShadow_57_7119" result="shape"/>
</filter>
<linearGradient id="paint0_linear_57_7119" x1="104" y1="65" x2="346.267" y2="245.015" gradientUnits="userSpaceOnUse">
<stop offset="0.197722" stop-color="#FF291C"/>
<stop offset="1" stop-color="#FF8D85"/>
</linearGradient>
</defs>
</svg>
