<svg width="480" height="400" viewBox="0 0 480 400" fill="none" xmlns="http://www.w3.org/2000/svg">
<g filter="url(#filter0_d_5_112)">
<path fill-rule="evenodd" clip-rule="evenodd" d="M294.399 25.3146V57.7751H356.685V25.3146H294.399ZM282.084 21.6448C282.084 16.8725 285.952 13 290.728 13H360.356C365.132 13 369 16.8725 369 21.6448V61.4449C369 66.2172 365.132 70.0897 360.356 70.0897H290.728C285.952 70.0897 282.084 66.2171 282.084 61.4449V47.7021H258.591V143.967H282.084V130.349C282.084 125.576 285.952 121.704 290.728 121.704H360.356C365.132 121.704 369 125.576 369 130.349V170.149C369 174.921 365.132 178.794 360.356 178.794H290.728C285.952 178.794 282.084 174.921 282.084 170.149V156.282H258.591V252.298H282.084V239.146C282.084 234.045 286.22 229.91 291.321 229.91H359.764C364.865 229.91 369 234.045 369 239.146V277.764C369 282.865 364.865 287 359.764 287H291.321C286.219 287 282.084 282.865 282.084 277.764V264.612H255.512C250.411 264.612 246.276 260.477 246.276 255.377V200.932H222.783V213.96C222.783 219.06 218.647 223.196 213.546 223.196H120.236C115.135 223.196 111 219.06 111 213.96V85.7917C111 80.6908 115.135 76.5557 120.236 76.5557H213.546C218.647 76.5557 222.783 80.6908 222.783 85.7917V99.0676H246.276V44.6235C246.276 39.5226 250.411 35.3875 255.512 35.3875H282.084V21.6448ZM246.276 111.382H222.783V143.967H246.276V111.382ZM246.276 156.282H222.783V188.618H246.276V156.282ZM316.47 47.7021H304.157V35.3875H316.47V47.7021ZM346.928 47.7021H334.61V35.3875H346.928V47.7021ZM123.315 88.8703V121.331H210.468V88.8703H123.315ZM210.468 133.645H123.315V166.106H210.468V133.645ZM210.468 178.42H123.315V210.881H210.468V178.42ZM174.6 111.382H133.072V99.0676H174.6V111.382ZM200.71 111.382H188.394V99.0676H200.71V111.382ZM294.399 134.019V166.479H356.685V134.019H294.399ZM174.6 156.282H133.072V143.967H174.6V156.282ZM200.71 156.282H188.394V143.967H200.71V156.282ZM316.47 156.282H304.157V143.967H316.47V156.282ZM346.928 156.282H334.61V143.967H346.928V156.282ZM174.6 200.932H133.072V188.618H174.6V200.932ZM200.71 200.932H188.394V188.618H200.71V200.932ZM294.399 242.225V274.685H356.685V242.225H294.399ZM316.47 264.612H304.157V252.298H316.47V264.612ZM346.928 264.612H334.61V252.298H346.928V264.612Z" fill="url(#paint0_linear_5_112)"/>
</g>
<path d="M350 337C350 350.807 300.751 362 240 362C179.249 362 130 350.807 130 337C130 323.193 179.249 312 240 312C300.751 312 350 323.193 350 337Z" fill="#F7F3F3"/>
<defs>
<filter id="filter0_d_5_112" x="108" y="11" width="266" height="282" filterUnits="userSpaceOnUse" color-interpolation-filters="sRGB">
<feFlood flood-opacity="0" result="BackgroundImageFix"/>
<feColorMatrix in="SourceAlpha" type="matrix" values="0 0 0 0 0 0 0 0 0 0 0 0 0 0 0 0 0 0 127 0" result="hardAlpha"/>
<feOffset dx="1" dy="2"/>
<feGaussianBlur stdDeviation="2"/>
<feComposite in2="hardAlpha" operator="out"/>
<feColorMatrix type="matrix" values="0 0 0 0 0 0 0 0 0 0 0 0 0 0 0 0 0 0 0.25 0"/>
<feBlend mode="normal" in2="BackgroundImageFix" result="effect1_dropShadow_5_112"/>
<feBlend mode="normal" in="SourceGraphic" in2="effect1_dropShadow_5_112" result="shape"/>
</filter>
<linearGradient id="paint0_linear_5_112" x1="111" y1="74" x2="342.105" y2="257.814" gradientUnits="userSpaceOnUse">
<stop offset="0.199594" stop-color="#FF291C"/>
<stop offset="1" stop-color="#FF877F"/>
</linearGradient>
</defs>
</svg>
